<?xml version="1.0" standalone="no"?>
<!DOCTYPE svg PUBLIC "-//W3C//DTD SVG 20010904//EN"
 "http://www.w3.org/TR/2001/REC-SVG-20010904/DTD/svg10.dtd">
<svg version="1.0" xmlns="http://www.w3.org/2000/svg"
 width="2500.000000pt" height="2555.000000pt" viewBox="0 0 2500.000000 2555.000000"
 preserveAspectRatio="xMidYMid meet">

<g transform="translate(0.000000,2555.000000) scale(0.100000,-0.100000)"
fill="#000000" stroke="none">
<path d="M4062 23463 c-265 -362 -983 -1340 -1595 -2173 l-1113 -1515 883 -3
883 -2 0 -5703 c0 -3757 3 -5765 10 -5887 58 -1037 289 -1856 707 -2499 l55
-84 -823 -823 c-453 -453 -821 -825 -819 -827 3 -3 137 -29 299 -58 l294 -53
676 682 c372 376 680 683 685 682 5 0 59 -49 120 -108 85 -83 236 -212 316
-269 2 -2 -92 -99 -208 -216 -200 -200 -212 -214 -195 -229 97 -83 464 -294
661 -378 l54 -23 212 212 213 213 134 -50 c227 -85 440 -149 638 -192 l104
-22 186 186 186 185 170 -29 c189 -32 474 -66 635 -75 58 -3 129 -8 159 -11
l54 -6 -401 -401 c-221 -221 -402 -405 -402 -409 0 -11 522 -9 725 2 105 6
250 17 324 25 l134 14 222 221 222 222 159 23 c835 122 1545 415 2074 858 124
104 364 342 429 427 19 25 81 83 138 130 127 104 351 331 454 460 437 547 719
1245 848 2099 l18 123 -498 -498 c-275 -275 -499 -494 -499 -489 0 16 20 187
25 220 4 24 -178 -154 -959 -934 -753 -752 -968 -962 -982 -958 -11 3 -134 26
-274 52 -140 25 -266 48 -279 51 -22 5 115 145 1252 1282 l1277 1277 0 105 0
105 685 685 685 685 0 317 c-1 189 -5 320 -10 323 -6 4 -10 0 -10 -7 0 -9 -3
-9 -10 2 -7 12 -10 12 -10 1 0 -8 -6 -11 -17 -6 -19 7 -178 -6 -378 -31 -66
-8 -143 -16 -172 -17 -29 -1 -58 -8 -64 -15 -7 -6 -17 -12 -23 -12 -5 0 -1 7
10 16 19 15 19 15 -1 10 -11 -3 -56 -8 -100 -12 -85 -8 -109 -11 -125 -13 -7
-1 -10 -57 -9 -157 l1 -157 93 93 c52 52 91 98 88 103 -3 6 -2 7 4 4 14 -9 81
65 78 86 -2 9 1 15 6 11 5 -3 13 5 18 18 8 19 10 20 10 4 1 -18 2 -18 21 -1
11 10 20 14 20 8 0 -5 -79 -87 -175 -180 l-175 -171 0 3099 0 3099 -1400 0
-1400 0 -3 -3937 c-2 -3621 -4 -3946 -19 -4038 -34 -201 -59 -298 -115 -442
l-36 -92 -71 -30 c-133 -55 -308 -97 -511 -122 -152 -20 -571 -17 -730 5 -733
99 -1114 467 -1219 1178 -23 156 -35 394 -37 765 -1 182 -6 337 -10 345 -12
19 -27 -1 -32 -42 l-4 -35 -1 38 c-2 35 -4 37 -34 37 -18 0 -73 -5 -123 -10
-49 -6 -131 -13 -180 -15 -108 -6 -150 -16 -151 -36 0 -8 -3 -223 -4 -479 -2
-256 -7 271 -11 1170 -3 899 -7 3366 -8 5483 l-1 3847 880 0 879 0 -210 288
c-635 868 -2901 3956 -2909 3962 -3 3 -21 26 -40 53 -18 26 -36 47 -39 47 -4
0 -223 -296 -489 -657z m8935 -13125 c-3 -7 -5 -2 -5 12 0 14 2 19 5 13 2 -7
2 -19 0 -25z m-525 -325 c-1 -181 -4 -335 -6 -343 -2 -8 -4 139 -5 328 0 188
2 342 7 342 4 0 6 -147 4 -327z m-122 289 c0 -5 -7 -9 -15 -9 -8 0 -12 4 -9 9
3 4 9 8 15 8 5 0 9 -4 9 -8z m-223 -44 c-3 -7 -5 -2 -5 12 0 14 2 19 5 13 2
-7 2 -19 0 -25z m-5112 -3243 c205 -50 563 -76 803 -58 61 5 112 6 112 3 0 -3
-96 -101 -212 -217 l-213 -211 -159 -7 c-307 -14 -617 16 -845 81 l-54 16 214
214 c170 171 218 214 234 209 11 -3 65 -17 120 -30z"/>
<path d="M9630 18760 l0 -1180 695 0 695 0 0 115 0 115 -570 0 -570 0 0 1065
0 1065 -125 0 -125 0 0 -1180z"/>
<path d="M11840 18760 l0 -1180 760 0 760 0 0 115 0 115 -640 0 -640 0 0 435
0 435 630 0 631 0 -3 110 -3 110 -625 3 -625 2 -3 403 -2 402 635 0 635 0 0
115 0 115 -755 0 -755 0 0 -1180z"/>
<path d="M14090 19933 c0 -4 234 -541 519 -1193 472 -1078 520 -1185 543
-1188 23 -3 48 52 543 1184 286 653 522 1191 523 1196 2 5 -53 7 -128 6 l-131
-3 -365 -855 c-201 -470 -382 -894 -401 -943 -20 -48 -39 -84 -43 -80 -4 5
-157 364 -340 798 -184 435 -361 855 -395 935 l-62 145 -131 3 c-73 1 -132 -1
-132 -5z"/>
<path d="M17000 18760 l0 -1180 760 0 760 0 0 115 0 115 -635 0 -635 0 0 435
0 435 625 0 625 0 0 113 0 112 -625 -3 -625 -2 0 405 0 405 635 0 635 0 0 115
0 115 -760 0 -760 0 0 -1180z"/>
<path d="M19450 18760 l0 -1180 690 0 690 0 0 115 0 115 -565 0 -565 0 0 1065
0 1065 -125 0 -125 0 0 -1180z"/>
<path d="M21735 16260 c21 -24 26 -25 19 -6 -3 8 -13 17 -22 21 -13 5 -13 2 3
-15z"/>
<path d="M21697 16254 c-3 -3 -3 -12 0 -20 3 -10 0 -12 -10 -8 -8 3 -18 0 -23
-7 -5 -8 -3 -10 6 -4 9 5 11 4 6 -3 -4 -7 -14 -12 -23 -12 -13 0 -13 -3 -3
-15 7 -8 16 -13 19 -10 4 2 8 -1 8 -8 0 -7 -8 -13 -18 -13 -10 0 -16 3 -13 7
2 4 -2 9 -10 12 -16 6 -60 -36 -49 -47 5 -4 2 -6 -4 -4 -7 2 -194 -176 -417
-394 l-404 -397 -55 49 c-131 114 -293 231 -457 329 l-85 51 -291 -291 -291
-291 -89 45 c-202 101 -462 198 -693 257 l-44 12 289 290 289 291 -59 13 c-80
19 -264 50 -416 71 -114 15 -342 17 -2662 20 l-2538 3 -2 -1317 -3 -1318 -288
-285 -287 -285 40 -40 40 -40 247 248 c135 136 248 247 250 247 2 0 3 -673 3
-1496 l0 -1497 -295 -292 -295 -292 0 -567 c0 -311 3 -566 8 -566 4 0 133 126
287 280 154 154 284 280 289 280 5 0 7 -243 4 -566 l-4 -565 -117 -117 -117
-117 0 -570 0 -570 113 113 c62 61 114 112 117 112 3 0 4 -258 2 -573 l-2
-572 -250 -250 -250 -250 0 -570 0 -570 248 248 c136 136 249 247 252 247 3 0
4 -112 2 -250 l-3 -250 318 0 318 0 -420 -420 -420 -420 575 0 575 0 420 420
420 420 547 0 548 0 0 280 0 280 280 0 280 0 0 547 0 548 -405 -405 -405 -405
0 575 0 575 405 405 405 405 0 570 0 570 -247 -247 c-136 -137 -248 -248 -250
-248 -2 0 -3 205 -3 455 l0 455 253 -2 252 -3 3 -28 4 -29 771 5 c829 5 890 8
1207 63 633 109 1182 371 1628 776 99 91 252 253 314 333 17 22 63 65 101 95
99 77 325 298 415 405 214 254 393 542 517 830 26 61 56 130 67 154 19 43 19
44 -1 62 -22 20 -36 25 -26 9 3 -5 1 -10 -6 -10 -7 0 -9 8 -6 21 5 19 2 20
-41 15 -91 -11 -207 -20 -237 -19 l-31 1 -28 -112 c-33 -126 -125 -420 -131
-414 -2 2 16 67 41 143 170 524 249 1155 223 1783 -5 125 -11 238 -15 251 -5
22 -29 1 -252 -222 -136 -136 -250 -247 -253 -247 -3 0 -9 35 -13 78 -17 201
-81 545 -141 749 l-34 118 250 250 c137 138 249 256 249 262 0 7 -15 57 -34
110 -110 320 -280 654 -460 903 l-72 99 281 283 c154 156 372 377 484 492
l204 208 -34 21 c-19 12 -40 27 -46 33 -7 7 -29 22 -50 35 -21 13 -54 39 -73
59 -43 44 -155 121 -163 113 -4 -3 -5 8 -2 26 4 32 3 35 -8 25z m258 -254 c3
-5 1 -10 -4 -10 -6 0 -11 5 -11 10 0 6 2 10 4 10 3 0 8 -4 11 -10z m-3378
-2778 c160 -42 271 -101 376 -200 191 -183 291 -494 274 -854 -15 -311 -110
-553 -287 -729 -71 -71 -103 -94 -181 -133 -179 -88 -189 -89 -714 -93 l-460
-4 275 278 c151 153 474 478 718 723 393 395 439 446 419 452 -20 6 -499 95
-545 101 -13 1 -267 -245 -801 -775 l-782 -778 -169 0 -170 0 -2 458 -3 457
-287 -285 -288 -285 0 551 0 551 549 8 c302 4 553 5 558 2 5 -3 142 127 304
289 l294 295 420 -4 c388 -4 426 -6 502 -25z m3223 -2062 c0 -5 -8 -10 -17
-10 -15 0 -16 2 -3 10 19 12 20 12 20 0z m-201 -529 c-6 -18 -13 -30 -15 -28
-2 2 1 18 7 36 6 18 13 30 15 28 2 -2 -1 -18 -7 -36z m-28 -68 c-12 -20 -14
-14 -5 12 4 9 9 14 11 11 3 -2 0 -13 -6 -23z m-20 -50 c-12 -20 -14 -14 -5 12
4 9 9 14 11 11 3 -2 0 -13 -6 -23z m-30 -70 c-12 -20 -14 -14 -5 12 4 9 9 14
11 11 3 -2 0 -13 -6 -23z m-75 -162 c-20 -39 -38 -71 -41 -71 -3 0 12 34 32
75 20 41 39 73 41 71 2 -2 -13 -36 -32 -75z m-7338 -2860 l-113 -116 -3 570
-2 570 112 112 113 113 3 -566 2 -567 -112 -116z m1602 -2408 c-4 -441 -8
-577 -17 -580 -10 -4 -12 120 -13 557 0 535 3 600 28 600 4 0 5 -259 2 -577z"/>
<path d="M22113 11221 c10 -4 18 -11 17 -16 -1 -5 4 -11 12 -14 7 -2 10 0 6 4
-4 5 -4 13 1 19 6 8 -1 12 -22 13 -22 1 -26 -1 -14 -6z"/>
<path d="M12379 10293 c-13 -16 -12 -17 4 -4 9 7 17 15 17 17 0 8 -8 3 -21
-13z"/>
<path d="M17255 6740 c-379 -379 -687 -691 -685 -693 3 -2 68 -15 145 -29
l140 -26 688 686 c378 378 687 689 687 692 0 3 -57 16 -127 29 -71 12 -135 24
-143 27 -10 2 -265 -246 -705 -686z"/>
<path d="M11930 5212 l-514 -508 133 -24 132 -23 472 473 c260 260 466 469
460 466 -7 -4 -13 -2 -13 4 0 8 -6 8 -20 0 -16 -9 -20 -8 -20 5 0 10 5 13 12
9 7 -4 8 -3 4 4 -4 7 -13 12 -21 12 -7 0 -26 12 -42 28 -16 15 -38 35 -49 44
-20 17 -32 6 -534 -490z m550 446 c0 -9 -4 -20 -10 -23 -6 -3 -7 1 -4 10 4 9
-3 23 -17 35 l-24 20 27 -13 c16 -6 28 -20 28 -29z"/>
<path d="M7499 3214 c-215 -22 -504 -35 -784 -34 l-279 1 -274 -274 -275 -275
164 -7 c185 -8 612 7 859 31 l165 16 275 273 c151 151 272 276 270 277 -3 2
-57 -2 -121 -8z"/>
</g>
</svg>
